<svg width="96" height="67" viewBox="0 0 96 67" fill="none" xmlns="http://www.w3.org/2000/svg">
<g clip-path="url(#clip0_6_33)">
<path d="M-271.677 67.7476C-273.888 67.4565 -275.92 66.9681 -278 66.5929C-273.736 69.2359 -268.533 71.082 -262.938 72.373C-258.168 73.4213 -252.851 73.9251 -247.409 73.134C-243.805 72.6127 -240.614 70.783 -238.247 68.7106C-231.416 71.25 -222.768 71.6562 -214.309 70.1407C-207.781 69.1214 -201.611 65.8198 -197.844 61.7716C-194.489 61.7687 -190.993 61.1236 -187.581 60.4495C-183.352 63.253 -177.897 65.1862 -171.579 65.4327C-164.089 65.7828 -155.841 64.9278 -148.511 61.985C-144.637 60.4348 -141.244 58.1998 -138.45 55.7145C-132.863 57.8662 -126.811 59.7471 -119.955 60.0072C-116.336 60.1387 -112.42 59.9414 -108.833 58.4646C-106.759 57.6291 -105.176 56.3641 -103.653 55.1649C-97.2884 57.6725 -89.0942 58.0941 -81.0868 56.8968C-76.7671 56.1918 -72.3666 54.9104 -68.7469 52.6678C-66.6271 51.4164 -64.9626 49.8777 -63.3102 48.2917C-59.9666 48.2414 -56.5895 47.7279 -53.2138 46.9117C-50.5072 48.5402 -47.5386 50.0004 -44.1071 50.8872C-39.8503 52.0167 -34.9295 52.1676 -30.0467 51.8736C-23.2179 51.4335 -15.9763 49.9277 -10.045 46.5865C-7.69842 45.3273 -5.73542 43.7626 -3.93987 42.1398C6.44571 46.3427 19.9565 47.2681 33.1545 45.1926C39.3363 44.3126 45.4622 41.7295 49.7918 38.0923C55.5815 40.1415 70.2073 44.5184 83.1662 37.3523C89.3716 33.8902 88.1949 27.5249 87.48 25.3345C85.6864 19.8348 83.0342 14.5556 79.8459 9.5655C79.8459 9.5655 86.9955 26.4186 74.4753 32.9164C70.5678 34.9299 66.2632 36.2877 61.93 36.6426C54.3613 37.1716 47.594 35.4745 41.4816 33.3566C39.3583 36.3768 34.7689 38.1108 30.6546 39.3187C22.711 41.3583 14.521 41.8448 6.72117 41.4735C-0.23067 41.137 -6.56707 39.6322 -12.2501 37.4041C-16.8738 41.9755 -24.1312 45.2027 -31.458 46.3767C-40.2999 47.8893 -49.6269 47.8091 -56.5795 44.7957C-58.3501 44.1391 -59.6926 43.0695 -61.3916 42.3945C-62.4665 42.3675 -63.6709 42.7272 -64.7687 42.9081C-67.0831 43.4013 -69.4233 43.497 -71.7513 43.6402C-75.137 47.3886 -80.5444 50.3933 -86.3898 51.6921C-95.3734 53.5441 -104.808 53.3401 -112.023 50.495C-114.652 52.7357 -118.117 54.6863 -122.044 55.139C-131.378 56.2221 -139.76 53.879 -146.903 51.0155C-150.601 54.4399 -155.591 57.287 -161.149 58.815C-168.627 60.8865 -176.518 61.3469 -183.616 60.4418C-188.456 59.7146 -192.56 57.9903 -196.022 55.798C-199.41 56.5668 -202.858 57.0987 -206.214 57.1017C-209.601 60.5473 -214.316 63.5762 -219.922 64.9147C-229.262 67.1613 -239.175 66.878 -246.688 64.059C-248.995 66.0657 -252.044 67.8587 -255.552 68.4563C-261.113 69.3789 -266.455 68.4777 -271.677 67.7476Z" fill="#C9B27E"/>
</g>
<defs>
<clipPath id="clip0_6_33">
<path d="M13.0622 66.1697C5.96968 45.508 16.9697 23.0088 37.6314 15.9164L82.2717 0.59283C82.2717 0.59283 82.2717 0.59283 82.2717 0.59283L93.4904 33.275C94.387 35.8868 92.9965 38.731 90.3846 39.6275L13.0622 66.1697C13.0622 66.1697 13.0622 66.1697 13.0622 66.1697V66.1697Z" fill="white"/>
</clipPath>
</defs>
</svg>
