<svg width="512" height="388" viewBox="0 0 512 388" fill="none" xmlns="http://www.w3.org/2000/svg">
<path d="M337.539 309.301C339.583 308.515 341.455 307.509 343.374 306.639C339.504 310.83 334.732 314.172 329.577 316.874C325.181 319.11 320.258 320.749 315.173 320.747C311.806 320.749 308.776 318.993 306.505 316.771C300.245 321.307 292.223 323.441 284.309 323.071C278.207 322.978 272.358 319.885 268.718 315.386C265.599 316.007 262.328 315.83 259.134 315.6C255.301 319.991 250.299 323.492 244.436 324.986C237.488 326.832 229.794 327.271 222.879 324.856C219.226 323.586 215.995 321.347 213.312 318.674C208.194 322.48 202.636 326.025 196.273 327.638C192.915 328.481 189.269 328.958 185.884 327.729C183.927 327.042 182.413 325.711 180.956 324.454C175.128 328.863 167.528 330.932 160.045 330.886C156.006 330.786 151.872 329.959 148.43 327.752C146.417 326.539 144.817 324.873 143.226 323.143C140.117 323.701 136.961 323.671 133.796 323.251C131.337 325.848 128.629 328.278 125.471 330.057C121.554 332.302 116.986 333.413 112.438 333.946C106.077 334.653 99.2952 334.068 93.6672 330.88C91.4428 329.7 89.5642 328.055 87.8393 326.305C78.3338 333.641 65.8103 337.349 53.4732 337.142C47.6979 337.164 41.9153 334.986 37.7655 331.12C32.4563 334.832 19.0164 343.183 6.72477 336.39C0.837893 333.098 1.71035 324.699 2.29873 321.752C3.77451 314.35 6.056 307.072 8.84566 300.065C8.84566 300.065 2.7866 323.054 14.6473 329.07C18.3484 330.929 22.3959 331.871 26.4351 331.52C33.4871 330.788 39.717 327.346 45.3238 323.485C47.4019 326.97 51.7271 328.343 55.5924 329.128C63.0454 330.268 70.6732 329.367 77.9088 327.436C84.3575 325.707 90.1937 322.593 95.3976 318.67C99.8532 323.682 106.71 326.477 113.559 326.619C121.828 326.915 130.493 325.073 136.85 319.905C138.472 318.731 139.683 317.106 141.238 315.922C142.236 315.687 143.368 315.925 144.395 315.953C146.563 316.155 148.741 315.842 150.909 315.592C154.186 319.777 159.315 322.63 164.792 323.21C173.205 323.915 181.966 321.894 188.572 316.893C191.092 319.283 194.381 321.143 198.046 320.993C206.757 320.645 214.466 316.071 221.004 311.06C224.559 314.771 229.296 317.499 234.514 318.427C241.535 319.695 248.884 318.815 255.449 316.329C259.921 314.492 263.676 311.512 266.817 308.049C269.992 308.406 273.215 308.446 276.334 307.825C279.601 311.621 284.087 314.634 289.344 315.309C298.102 316.455 307.304 314.243 314.188 309.22C316.402 311.368 319.297 313.104 322.578 313.218C327.778 313.367 332.711 311.213 337.539 309.301Z" fill="#C9B27E"/>
<path d="M377.104 16.2904C380.299 19.007 381.859 21.4743 384.355 24.1562C382.645 23.8235 379.43 22.9734 379.43 22.9734C379.43 22.9734 378.655 22.2799 378.289 21.7927C374.104 16.3361 355.42 3.77785 340.846 20.2515C338.181 23.2966 327.597 41.8891 311.933 48.2007C308.471 49.5423 301.439 49.4762 298.029 47.5897C300.879 47.9526 303.728 48.3154 306.481 47.5847C319.684 44.1336 327.195 31.8321 329.129 28.3877C335.135 17.2948 342.886 13.8031 346.412 12.0398C342.574 12.9644 329.285 17.553 324.601 26.3307C323.376 28.5888 319.123 39.158 307.457 42.9156C302.641 44.482 296.973 43.5455 292.692 41.0227C295.607 41.5392 298.887 42.543 301.93 42.2162C311.51 41.1609 314.087 32.3493 315.87 28.7382C322.929 14.2102 340.39 9.97049 346.927 9.24195C361.992 7.44111 372.349 12.2572 377.104 16.2904Z" fill="#572923"/>
<path d="M375.784 24.9348C395.497 29.0206 405.543 34.1486 412.254 38.049C417.353 40.9841 422.043 44.8636 423.755 49.799C427.05 59.3625 423.643 86.3127 422.077 95.9976C416.224 89.3519 401.788 77.2259 364.019 68.0124C335.584 61.0858 320.403 64.8104 315.962 65.6431C321.022 56.7071 335.754 32.8507 346.784 27.4861C351.343 25.3051 359.664 21.5407 375.784 24.9348Z" fill="#C50015"/>
<path d="M361.342 72.2784C374.344 75.3406 387.207 79.3163 398.673 85.5239C416.237 95.0349 419.767 100.751 420.585 102.889C421.145 104.988 420.469 107.114 420.072 109.139C418.609 107.765 416.229 101.434 397.825 90.5003C391.608 86.8193 371.926 78.4954 346.267 74.1496C329.19 71.2567 311.299 75.4308 311.148 75.8394C311.771 74.0647 313.017 71.666 315.254 70.8566C323.758 67.6235 340.511 67.4467 361.342 72.2784Z" fill="#C9B27E"/>
<path d="M309.582 80.9212C313.248 79.395 317.344 78.5098 321.215 77.3744C317.238 82.0892 314.638 87.014 312.824 93.1373C311.729 96.8534 311.655 100.797 311.335 104.632C310.216 104.461 308.765 104.743 307.926 103.896C305.849 101.925 304.923 99.3389 303.32 97.1527C302.771 96.1341 301.599 95.1642 302.125 94.022C303.899 93.3578 305.18 95.3509 306.567 96.066C306.899 93.8874 307.156 91.6255 307.575 89.4601C306.219 88.5342 305.455 87.1952 303.401 86.8099C296.035 85.4704 298.513 95.7721 299.17 98.9646C300.269 102.728 303.238 106.345 307.562 108.011C305.706 117.292 305.603 127.2 309.833 136.403C312.729 142.813 318.097 148.594 324.906 152.437C353.441 168.512 373.492 159.993 380.512 156.102C386.564 152.783 391.627 148.449 395.959 143.717C401.905 143.977 407.614 141.755 411.258 138.069C413.235 136.069 419.2 129.285 415.349 126.827C412.381 124.936 409.898 128.513 409.039 129.532C409.824 129.58 412.437 129.763 409.846 131.741C407.546 133.547 404.923 135.161 402.633 136.897C401.988 136.511 401.342 136.124 400.783 135.751C403.038 129.624 406.95 124.18 409.367 118.148C410.903 114.428 411.6 110.435 412.114 106.486C414.083 108.585 415.869 110.727 417.644 112.939C417.086 114.867 416.528 116.796 415.55 118.588C415.034 119.66 414.358 121.211 414.261 121.843C414.261 121.843 415.981 121.53 418.219 122.447C423.779 124.662 423.739 131.271 420.676 135.766C418.635 138.762 415.614 141.25 412.378 143.417C407.1 146.855 399.767 148.181 397.219 149.302C394.306 150.512 392.231 152.568 390.168 154.555C387.996 156.669 385.363 158.352 382.729 160.036C378.751 162.449 374.451 164.67 369.677 165.955C368.753 166.245 367.817 166.606 366.828 166.743C343.226 169.111 323.576 159.425 317.326 154.229C312.818 150.306 309.472 145.696 306.298 141.113C306.018 140.639 305.738 140.165 305.372 139.678C302.553 135.077 301.131 129.97 300.494 124.911C300.461 122.82 301.941 113.698 300.81 111.296C299.508 108.868 296.389 107.385 294.99 105.015C293.763 102.67 293.095 100.123 293.288 97.7077C293.533 94.3653 293.07 91.6339 294.294 87.6498C295.002 85.3129 297.141 83.41 299.883 82.7496C302.7 82.1726 305.411 83.449 308.099 84.2906C308.722 83.0913 309.152 82.0062 309.582 80.9212Z" fill="#572923"/>
<path d="M338.712 82.705C341.507 81.6932 344.83 82.4158 347.53 83.7625C351.036 85.5918 354.016 87.988 356.211 90.9116C351.156 88.2708 345.638 85.1998 339.616 85.4317C334.713 85.8343 331.715 89.332 329.307 92.4165C330.811 88.3312 333.798 84.3285 338.712 82.705Z" fill="#572923"/>
<path d="M377.033 96.9641C381.172 95.7978 385.85 95.7203 390.28 96.6839C393.001 97.3147 395.583 98.8591 396.648 101.107C398.941 105.124 398.082 109.596 396.686 113.553C396.814 109.834 397.209 105.507 393.896 102.413C389.453 98.6431 382.936 97.5051 377.033 96.9641Z" fill="#572923"/>
<path d="M339.191 93.4209C344.105 92.948 349.514 94.9958 352.505 98.4723C354.152 100.377 354.421 102.072 354.218 103.983C351.432 103.199 348.658 102.344 345.872 101.559C345.872 101.559 344.548 98.1213 340.235 96.3847C336.331 94.8543 331.988 96.7805 331.988 96.7805C333.342 95.4051 335.707 93.7523 339.191 93.4209Z" fill="#572923"/>
<path d="M374.402 106.127C379.09 105.404 385.748 107.929 389.04 111.74C390.686 113.645 390.859 115.972 390.269 118.111C387.644 116.848 385.009 115.655 382.288 114.449C381.341 112.579 380.082 110.445 377.662 109.572C372.747 107.744 368.801 109.371 368.801 109.371C369.704 108.071 372.144 106.501 374.402 106.127Z" fill="#572923"/>
<path d="M321.058 109.567C322.961 108.635 325.789 108.563 327.617 109.849C328.897 110.691 329.264 112.904 329.028 113.3C329.393 112.636 327.026 110.837 325.317 111.08C322.026 111.297 320.362 115.861 323.879 117.045C330.396 119.333 337.427 115.372 344.298 115.917C348.385 116.253 351.956 118.811 354.258 121.607C358.731 121.139 363.85 121.632 367.379 124.472C371.445 127.825 374.995 131.674 379.878 134.289C381.094 134.977 382.739 135.157 383.986 134.484C386.351 133.406 385.812 130.016 383.521 128.876C382.048 128.148 380.08 128.926 380.08 128.926C380.155 127.859 381.671 127.155 382.735 127.102C385.122 127.035 387.403 128.245 388.457 129.988C390.491 133.391 389.17 137.432 386.075 139.836C383.076 142.183 378.452 142.485 374.387 142.008C364.762 141.044 356.114 135.41 351.562 128.315C345.66 130.075 339.111 130.874 332.723 129.468C327.26 128.347 321.141 125.76 318.418 122.252C315.094 118.078 315.779 111.854 321.058 109.567Z" fill="#572923"/>
<path d="M369.677 165.956C368.752 166.246 367.752 166.453 366.828 166.743C365.452 169.41 362.109 170.554 359.486 172.167C357.056 173.666 354.11 174.511 351.121 175.062C347.304 175.846 343.401 176.617 339.713 177.708C336.133 178.672 333.349 180.764 330.436 182.549C329.176 179.265 321.525 167.671 315.759 162.764C311.155 158.898 308.024 154.033 306.516 148.913C305.687 146.27 306.352 143.639 306.319 140.973C306.039 140.499 305.759 140.025 305.393 139.537C304.06 139.622 302.737 139.636 301.511 140.168C298.802 141.193 295.931 142.121 292.91 142.307C287.835 142.684 282.673 141.896 277.694 142.791C273.619 143.535 269.468 141.895 265.274 142.262C257.414 143.005 270.814 146.919 273.869 149.398C275.935 150.864 277.118 152.914 278.41 154.837C281.078 158.696 283.263 162.84 284.824 167.034C285.707 169.326 292.242 185.927 293.148 192.106C294.076 198.144 295.124 209.738 295.382 210.353C295.641 210.968 299.223 213.456 299.502 213.354C299.868 213.266 299.972 183.152 296.363 168.147C295.501 163.988 293.101 160.099 291.69 156.072C291.173 154.267 290.775 152.265 291.978 150.723C297.987 145.383 305.318 163.113 307.61 165.979C310.063 169.518 322.218 178.707 323.499 181.275C324.306 182.909 325.178 184.696 325.351 186.448C323.934 191.697 323.195 197.121 320.756 202.143C318.951 205.894 319.2 210.031 318.256 213.914C317.784 215.856 317 219.26 317.441 219.83C317.893 220.331 319.453 220.497 320.087 220.378C320.721 220.259 322.501 208.018 325.552 201.867C326.99 196.478 329.224 191.066 333.965 187.115C336.286 185.168 339.846 184.92 342.996 184.465C347.652 183.953 351.727 182.058 356.178 181.155C359.909 179.782 363.424 178.089 367.23 176.8C369.779 177.98 372.64 178.848 374.759 180.538C376.028 181.45 376.352 182.794 376.868 184.024C371.375 186.565 359.936 193.45 356.014 198.388C350.758 204.562 339.075 215.94 339.355 216.414C339.71 216.971 342.345 217.589 342.872 217.597C343.485 217.619 356.114 204.66 364.488 199.969C378.152 192.345 391.195 191.674 400.303 191.41C397.904 188.671 377.952 179.227 369.677 165.956Z" fill="#C9B27E"/>
<path d="M311.188 183.496C314.855 182.545 319.533 185.344 319.202 188.673C319.181 191.115 316.515 193.01 313.547 192.845C310.461 192.877 307.525 190.775 307.212 188.211C306.759 185.984 308.651 183.972 311.188 183.496Z" fill="#C9B27E"/>
<path d="M32.2676 286.608C32.7781 294.515 36.3962 298.252 43.1217 297.817C50.4834 297.342 55.2723 294.477 57.4884 289.224C58.2799 287.347 58.5847 285 58.4028 282.183C58.215 279.274 57.3602 276.637 55.8385 274.272C53.314 270.51 49.1272 266.445 43.278 262.077C33.5939 254.854 28.4819 247.062 27.942 238.7C27.3962 230.248 29.6123 223.579 34.5902 218.695C39.5681 213.81 45.4653 211.148 52.2816 210.708C59.098 210.267 64.6172 211.645 68.8391 214.841C73.0611 218.036 75.3951 223.087 75.8411 229.995C76.1345 234.539 74.8448 238.592 71.9718 242.154C69.1897 245.711 65.3258 248.059 60.3799 249.2C62.7753 250.962 65.1736 252.769 67.5748 254.622C69.8852 256.481 72.0255 258.533 73.9958 260.778C78.3409 265.882 80.7542 272.161 81.2354 279.613C81.5699 284.794 80.6452 289.554 78.4612 293.893C76.3682 298.226 73.4615 301.973 69.7412 305.134C66.106 308.198 61.9298 310.658 57.2127 312.514C52.4955 314.37 48.0466 315.433 43.8659 315.703C34.9591 316.278 27.9198 314.679 22.7479 310.906C16.7229 306.641 13.4287 300.145 12.8653 291.42C12.4955 285.695 14.0007 280.03 17.3807 274.428C20.7608 268.825 24.5412 265.888 28.7219 265.618C31.9938 265.407 33.6942 266.301 33.8233 268.301C34.0111 271.209 33.7445 274.147 33.0235 277.114C32.2965 279.99 32.0446 283.155 32.2676 286.608ZM56.2151 246.183C61.0611 240.669 63.3021 235.094 62.9383 229.459C62.8268 227.732 61.824 226.336 59.93 225.272C57.8601 224.311 55.7345 223.9 53.5533 224.041C48.6455 224.358 45.2037 226.178 43.2279 229.499C44.5708 233.337 46.3755 236.552 48.6419 239.143C50.9992 241.729 53.5236 244.076 56.2151 246.183ZM123.73 294.666C130.819 294.208 137.499 290.948 143.769 284.884C146.088 282.636 147.964 280.598 149.398 278.771C150.826 276.854 151.949 275.869 152.766 275.816C154.039 275.734 154.757 276.965 154.922 279.51C155.086 282.055 154.589 284.961 153.431 288.23C152.267 291.409 150.192 294.6 147.205 297.805C139.864 305.671 129.377 310.044 115.744 310.925C104.929 311.623 97.315 308.19 92.9022 300.626C91.3629 297.988 90.4289 294.124 90.1002 289.034C89.7716 283.945 90.431 278.609 92.0783 273.027C93.7198 267.354 96.0474 262.412 99.061 258.202C102.166 253.986 105.829 250.646 110.05 248.183C114.266 245.629 118.828 244.194 123.736 243.877C128.734 243.554 132.631 244.535 135.425 246.818C138.31 249.096 139.879 252.189 140.131 256.097C140.383 260.005 139.592 263.296 137.757 265.97C136.007 268.547 133.642 270.799 130.664 272.725C127.679 274.561 124.322 276.284 120.593 277.893C116.949 279.406 113.362 281.098 109.832 282.969L110.052 286.377C110.355 289.643 111.867 291.873 114.591 293.066C117.315 294.259 120.361 294.792 123.73 294.666ZM118.93 256.371C114.204 256.676 111.287 262.386 110.179 273.501C112.006 272.105 113.705 270.854 115.276 269.749C116.938 268.638 118.376 267.587 119.59 266.596C122.187 264.42 123.449 262.057 123.376 259.506C123.229 257.234 121.747 256.189 118.93 256.371ZM155.429 300.148C154.27 297.759 153.361 294.988 152.702 291.837C152.036 288.594 151.515 284.065 151.14 278.248C150.764 272.431 151.347 264.499 152.889 254.452L146.754 254.848C145.663 254.919 145.089 254.499 145.03 253.591C144.889 251.409 144.956 249.625 145.232 248.239C145.592 246.755 146.487 245.055 147.914 243.137L151.186 242.926C152.458 242.844 153.819 242.71 155.267 242.525C158.726 228.247 162.727 220.962 167.272 220.668C170.913 220.524 173.607 222.678 175.355 227.128C175.801 228.377 176.298 229.714 176.846 231.139L171.89 241.315C178.264 241.086 182.269 240.919 183.905 240.813C185.631 240.702 186.552 240.825 186.666 241.182C186.866 241.443 186.986 241.892 187.027 242.528C187.133 244.164 186.856 246.235 186.196 248.742C185.628 251.243 184.841 252.48 183.835 252.454L170.158 252.653C168.966 263.864 168.604 273.105 169.073 280.376C169.543 287.646 170.823 291.214 172.913 291.079C174.64 290.968 177.685 289.357 182.047 286.246C186.403 283.044 189.496 280.061 191.326 277.296C193.155 274.531 194.706 273.108 195.978 273.026C197.25 272.943 197.986 274.447 198.186 277.537C198.386 280.628 197.5 283.879 195.53 287.292C193.554 290.614 190.973 293.746 187.787 296.69C184.685 299.537 181.145 301.956 177.167 303.947C173.279 305.932 169.836 307.021 166.837 307.215C163.837 307.408 161.476 306.876 159.752 305.619C158.113 304.264 156.672 302.441 155.429 300.148ZM198.697 297.354C197.538 294.965 196.629 292.195 195.97 289.043C195.304 285.8 194.783 281.271 194.408 275.454C194.032 269.638 194.615 261.706 196.157 251.658L190.022 252.054C188.931 252.125 188.357 251.706 188.298 250.797C188.157 248.616 188.224 246.832 188.5 245.445C188.86 243.961 189.755 242.261 191.182 240.343L194.454 240.132C195.726 240.05 197.087 239.916 198.535 239.732C201.994 225.454 205.995 218.168 210.54 217.874C214.181 217.731 216.875 219.884 218.623 224.334C219.069 225.583 219.566 226.92 220.114 228.345L215.158 238.521C221.532 238.292 225.537 238.125 227.173 238.019C228.9 237.908 229.82 238.031 229.935 238.389C230.134 238.65 230.254 239.098 230.295 239.734C230.401 241.37 230.124 243.442 229.464 245.948C228.896 248.449 228.109 249.686 227.103 249.66L213.426 249.859C212.234 261.07 211.872 270.311 212.342 277.582C212.811 284.853 214.091 288.42 216.181 288.285C217.908 288.174 220.953 286.563 225.315 283.452C229.671 280.25 232.764 277.267 234.594 274.502C236.423 271.737 237.974 270.314 239.246 270.232C240.519 270.15 241.255 271.653 241.454 274.744C241.654 277.834 240.768 281.085 238.798 284.498C236.823 287.82 234.241 290.952 231.055 293.896C227.953 296.743 224.413 299.162 220.435 301.153C216.547 303.138 213.104 304.227 210.105 304.421C207.105 304.615 204.744 304.083 203.02 302.825C201.381 301.471 199.94 299.647 198.697 297.354ZM252.827 301.662C243.739 302.249 238.646 294.045 237.548 277.049C236.95 267.779 237.543 259.299 239.328 251.609C242.121 239.746 245.745 233.672 250.198 233.384C252.834 233.214 255.039 234.851 256.813 238.296C258.261 240.94 259.025 243.583 259.104 246.225C259.339 249.86 258.662 256.338 257.074 265.658C255.5 273.791 254.774 278.812 254.897 280.72C255.021 282.629 255.56 283.917 256.516 284.586C257.563 285.248 258.722 285.539 259.995 285.456C261.358 285.368 262.984 284.396 264.872 282.54C266.76 280.684 268.639 278.692 270.509 276.564C272.374 274.344 274.068 272.318 275.592 270.486C277.208 268.647 278.333 267.708 278.97 267.667C280.242 267.585 280.978 269.088 281.178 272.179C281.588 278.541 278.764 284.975 272.704 291.48C266.73 297.89 260.104 301.284 252.827 301.662ZM253.302 222.095C250.614 218.618 249.134 214.789 248.864 210.608C248.594 206.428 249.008 202.933 250.104 200.124C251.285 197.219 252.426 195.092 253.525 193.743C254.619 192.303 255.938 191.534 257.483 191.434C260.028 191.27 262.468 193.029 264.805 196.711C267.136 200.302 268.384 203.37 268.548 205.915C268.853 210.641 267.413 214.476 264.226 217.42C261.124 220.267 257.483 221.825 253.302 222.095ZM289.854 230.55C293.126 230.338 296.418 233.274 299.732 239.358C303.716 234.628 308.843 232.061 315.114 231.656C321.476 231.246 326.339 232.346 329.702 234.958C333.059 237.479 334.902 241.285 335.23 246.374C335.553 251.373 335.2 256.507 334.171 261.775C333.233 267.038 332.52 270.826 332.03 273.139C331.626 275.355 331.47 277.191 331.564 278.645C331.658 280.099 332.205 280.794 333.205 280.729C334.568 280.641 336.194 279.669 338.082 277.813C339.97 275.957 341.849 273.965 343.719 271.836C345.584 269.617 347.278 267.591 348.803 265.759C350.418 263.92 351.544 262.98 352.18 262.939C353.452 262.857 354.188 264.361 354.388 267.451C354.798 273.813 352.059 280.15 346.169 286.463C336.026 293.324 329.5 296.848 326.592 297.036C326.319 297.054 326.134 297.02 326.037 296.935C318.767 297.404 314.756 291.823 314.004 280.189C313.682 275.191 313.84 270.571 314.479 266.332C315.208 262.087 315.739 258.995 316.07 257.057C316.401 255.119 316.502 253.151 316.373 251.151C316.162 247.879 314.148 246.367 310.331 246.613C306.604 246.854 303.196 249.903 300.106 255.761C297.102 261.522 295.202 267.44 294.408 273.515L294.47 274.469C294.669 277.559 295.329 280.711 296.449 283.924C297.66 287.131 298.307 289.371 298.389 290.643C298.588 293.733 294.922 297.028 287.391 300.526C286.239 301.056 285.208 301.351 284.299 301.41C282.027 301.556 280.36 300.478 279.299 298.173C278.328 295.863 277.682 292.209 277.359 287.21C276.526 274.304 276.424 264.956 277.054 259.166C277.866 250.535 280.442 242.383 284.784 234.71C286.255 232.06 287.945 230.673 289.854 230.55ZM397.546 229.619C398.56 225.538 400.476 223.406 403.294 223.225C405.844 223.151 408.37 224.813 410.871 228.211C413.366 231.518 414.675 234.126 414.799 236.034C414.857 239.772 414.106 245.799 412.544 254.113C410.976 262.337 408.703 273.071 405.725 286.314C411.424 281.291 416.941 274.866 422.276 267.038C424.112 264.364 425.661 262.21 426.924 260.577C428.273 258.847 429.402 257.953 430.31 257.894C431.583 257.812 432.313 259.225 432.501 262.134C432.87 267.859 430.075 274.748 424.115 282.799C418.246 290.844 410.815 297.302 401.82 302.172C400.964 305.878 400.006 309.408 398.945 312.762C397.884 316.116 396.433 319.084 394.592 321.667C390.569 327.22 384.105 330.284 375.198 330.859C369.2 331.247 363.953 329.851 359.459 326.674C355.055 323.49 352.686 319.308 352.351 314.127C352.17 311.31 352.935 309.025 354.647 307.271C356.45 305.512 358.955 304.027 362.162 302.816C365.369 301.605 369.131 300.495 373.446 299.486C377.853 298.472 382.52 297.258 387.448 295.844C387.803 294.27 388.07 292.747 388.248 291.275C388.512 289.707 388.776 288.138 389.04 286.57C384.34 291.527 378.355 294.241 371.084 294.711C363.905 295.174 358.231 293.533 354.065 289.786C349.899 286.04 347.676 281.3 347.398 275.569C346.4 260.118 350.748 247.608 360.443 238.038C367.139 231.491 374.304 227.971 381.939 227.478C384.574 227.308 387.412 227.444 390.453 227.887C393.584 228.323 395.948 228.901 397.546 229.619ZM367.147 269.776C367.599 276.774 370.415 280.106 375.596 279.771C378.504 279.584 381.387 278.302 384.246 275.927C387.104 273.553 389.284 269.852 390.784 264.827C391.737 258.377 392.767 252.424 393.875 246.968C395.074 241.506 395.878 237.712 396.289 235.587C388.719 237.08 381.805 240.948 375.546 247.193C369.377 253.433 366.578 260.96 367.147 269.776ZM384.032 308.659C380.801 309.507 377.971 310.192 375.54 310.714C373.11 311.236 371.085 311.686 369.467 312.064C367.94 312.436 366.779 312.831 365.984 313.247C365.281 313.658 364.955 314.272 365.008 315.09C365.114 316.726 366.204 318.07 368.28 319.122C370.447 320.169 372.527 320.582 374.52 320.362C377.974 320.139 381.145 316.238 384.032 308.659ZM454.309 221.984C460.392 221.5 465.01 222.342 468.162 224.512C471.308 226.59 473.021 229.811 473.303 234.173C473.579 238.445 472.499 242.211 470.063 245.471C467.711 248.635 464.714 250.973 461.07 252.486C463.881 255.042 466.423 257.662 468.696 260.344C471.059 263.021 472.34 265.904 472.54 268.994C472.933 275.083 470.83 279.965 466.23 283.639C461.624 287.222 455.004 289.292 446.37 289.849C437.827 290.401 431.311 289.133 426.822 286.046C422.328 282.869 419.943 279.144 419.667 274.872C419.385 270.51 420.175 266.489 422.036 262.809C423.989 259.124 426.192 257.202 428.646 257.044C430.1 256.95 431.18 257.428 431.887 258.477C432.588 259.436 433.963 262.359 436.013 267.246C436.766 269.022 437.923 270.682 439.483 272.224C443.086 275.733 448.523 277.253 455.794 276.783C454.48 273.4 452.517 270.561 449.905 268.265C447.378 265.873 444.856 263.572 442.34 261.361C439.825 259.151 437.573 256.787 435.585 254.268C433.592 251.659 432.477 248.537 432.243 244.901C431.82 238.358 433.931 232.882 438.574 228.476C442.975 224.541 448.22 222.377 454.309 221.984ZM455.392 247.24C458.775 243.097 460.39 239.844 460.238 237.481C460.167 236.39 459.697 235.462 458.826 234.697C458.04 233.835 456.92 233.451 455.466 233.545C454.012 233.639 452.615 233.912 451.275 234.364C450.026 234.809 448.999 235.149 448.192 235.384C448.415 238.838 450.815 242.789 455.392 247.24Z" fill="#572923"/>
<g clip-path="url(#clip0_6_34)">
<path d="M121.323 327.748C119.112 327.456 117.08 326.968 115 326.593C119.264 329.236 124.467 331.082 130.062 332.373C134.832 333.421 140.149 333.925 145.591 333.134C149.195 332.613 152.386 330.783 154.753 328.711C161.584 331.25 170.232 331.656 178.691 330.141C185.219 329.121 191.389 325.82 195.156 321.772C198.511 321.769 202.007 321.124 205.419 320.45C209.648 323.253 215.103 325.186 221.421 325.433C228.911 325.783 237.159 324.928 244.489 321.985C248.363 320.435 251.756 318.2 254.55 315.714C260.137 317.866 266.189 319.747 273.045 320.007C276.664 320.139 280.58 319.941 284.167 318.465C286.241 317.629 287.824 316.364 289.347 315.165C295.712 317.673 303.906 318.094 311.913 316.897C316.233 316.192 320.633 314.91 324.253 312.668C326.373 311.416 328.037 309.878 329.69 308.292C333.033 308.241 336.41 307.728 339.786 306.912C342.493 308.54 345.461 310 348.893 310.887C353.15 312.017 358.07 312.168 362.953 311.874C369.782 311.434 377.024 309.928 382.955 306.586C385.302 305.327 387.265 303.763 389.06 302.14C399.446 306.343 412.956 307.268 426.154 305.193C432.336 304.313 438.462 301.73 442.792 298.092C448.581 300.142 463.207 304.518 476.166 297.352C482.372 293.89 481.195 287.525 480.48 285.334C478.686 279.835 476.034 274.556 472.846 269.566C472.846 269.566 479.995 286.419 467.475 292.916C463.568 294.93 459.263 296.288 454.93 296.643C447.361 297.172 440.594 295.474 434.482 293.357C432.358 296.377 427.769 298.111 423.655 299.319C415.711 301.358 407.521 301.845 399.721 301.473C392.769 301.137 386.433 299.632 380.75 297.404C376.126 301.976 368.869 305.203 361.542 306.377C352.7 307.889 343.373 307.809 336.42 304.796C334.65 304.139 333.307 303.07 331.608 302.395C330.533 302.367 329.329 302.727 328.231 302.908C325.917 303.401 323.577 303.497 321.249 303.64C317.863 307.389 312.456 310.393 306.61 311.692C297.627 313.544 288.191 313.34 280.977 310.495C278.348 312.736 274.883 314.686 270.956 315.139C261.622 316.222 253.24 313.879 246.097 311.016C242.399 314.44 237.409 317.287 231.851 318.815C224.373 320.887 216.482 321.347 209.384 320.442C204.544 319.715 200.44 317.99 196.978 315.798C193.59 316.567 190.142 317.099 186.786 317.102C183.399 320.547 178.684 323.576 173.078 324.915C163.738 327.161 153.825 326.878 146.312 324.059C144.004 326.066 140.956 327.859 137.448 328.456C131.887 329.379 126.545 328.478 121.323 327.748Z" fill="#C9B27E"/>
</g>
<defs>
<clipPath id="clip0_6_34">
<path d="M406.062 326.17C398.97 305.508 409.97 283.009 430.631 275.916L475.272 260.593C475.272 260.593 475.272 260.593 475.272 260.593L486.49 293.275C487.387 295.887 485.996 298.731 483.385 299.628L406.062 326.17C406.062 326.17 406.062 326.17 406.062 326.17V326.17Z" fill="white"/>
</clipPath>
</defs>
</svg>
